# xmcd CD database file
#
# Track frame offsets:
#	150
#	16035
#	41195
#	66160
#	92925
#	103977
#	118032
#	127699
#	139422
#
# Disc length: 2080 seconds
#
# Revision: 6
# Processed by: cddbd v1.5.1PL0 Copyright (c) Steve Scherf et al.
# Submitted via: CDex 1.51
#
DISCID=7d081e09
DTITLE=椎名林檎 - 絶頂集 １・２・３
DYEAR=2000
DGENRE=J-Pop
TTITLE0=やっつけ仕事
TTITLE1=ギャンブル
TTITLE2=同じ夜
TTITLE3=メロウ
TTITLE4=不幸自慢
TTITLE5=喪＠CINコ瑠ヲュWァ
TTITLE6=膨らんできちゃった
TTITLE7=はいはい
TTITLE8=光合成
EXTD=YEAR: 2000
EXTT0=
EXTT1=
EXTT2=
EXTT3=
EXTT4=
EXTT5=
EXTT6=
EXTT7=
EXTT8=
PLAYORDER=
